<?xml version="1.0" encoding="UTF-8"?>
<!--Generator: Apple Native CoreSVG 232.5-->
<!DOCTYPE svg
PUBLIC "-//W3C//DTD SVG 1.1//EN"
       "http://www.w3.org/Graphics/SVG/1.1/DTD/svg11.dtd">
<svg version="1.1" xmlns="http://www.w3.org/2000/svg" xmlns:xlink="http://www.w3.org/1999/xlink" width="25.2563" height="24.9146">
 <g>
  <rect height="24.9146" opacity="0" width="25.2563" x="0" y="0"/>
  <path d="M24.9023 12.4634C24.9023 19.2749 19.2627 24.9146 12.4512 24.9146C5.65186 24.9146 0 19.2749 0 12.4634C0 5.66406 5.63965 0.012207 12.439 0.012207C19.2505 0.012207 24.9023 5.66406 24.9023 12.4634ZM11.438 6.06689C11.438 6.28662 11.5356 6.50635 11.6699 6.65283L12.5488 7.55615C12.4512 7.54395 12.3169 7.53174 12.207 7.53174C9.375 7.53174 6.83594 9.94873 6.83594 13.0371C6.83594 16.1865 9.33838 18.7134 12.4512 18.7134C15.564 18.7134 18.0664 16.1865 18.0664 13.0859C18.0664 12.6099 17.6636 12.2192 17.1997 12.2192C16.7236 12.2192 16.3208 12.6099 16.3208 13.0859C16.3208 15.2466 14.5996 16.98 12.4512 16.98C10.3027 16.98 8.58154 15.2466 8.58154 13.0859C8.58154 10.9375 10.3027 9.2041 12.4512 9.2041C12.6099 9.2041 12.7808 9.21631 12.9028 9.24072L11.6821 10.4492C11.5356 10.5957 11.438 10.8032 11.438 11.0229C11.438 11.4746 11.792 11.8286 12.2437 11.8286C12.4512 11.8286 12.6587 11.7188 12.793 11.5845L15.2344 9.14307C15.5518 8.83789 15.5273 8.28857 15.2344 7.97119L12.8174 5.51758C12.6831 5.35889 12.4634 5.26123 12.2437 5.26123C11.7798 5.26123 11.438 5.61523 11.438 6.06689Z" fill="#ffffff" fill-opacity="0.85"/>
 </g>
</svg>
